HIERARCHY
ROOT __0
{
	OFFSET 0.0 0.0 0.0
	CHANNELS 0
	JOINT torso_base_link
	{
		OFFSET 0.000000 0.000000 0.000000
		CHANNELS 6 Xposition Yposition Zposition Zrotation Xrotation Yrotation
		JOINT torso_link_b1
		{
			OFFSET 0.925000 0.000000 8.835000
			CHANNELS 6 Xposition Yposition Zposition Zrotation Xrotation Yrotation
			JOINT tail_lb1
			{
				OFFSET 0.000000 0.000000 3.221000
				CHANNELS 3 Zrotation Xrotation Yrotation
				JOINT arm_left_link_1_s
				{
					OFFSET 1.000000 0.000000 0.000000
					CHANNELS 3 Zrotation Xrotation Yrotation
					JOINT arm_left_link_2_l
					{
						OFFSET 0.000297 2.530458 0.000400
						CHANNELS 3 Zrotation Xrotation Yrotation
						JOINT tail_left_link_2_l
						{
							OFFSET 0.000000 0.000000 -2.000400
							CHANNELS 3 Zrotation Xrotation Yrotation
							JOINT arm_left_link_3_e
							{
								OFFSET -0.000297 1.690000 2.000000
								CHANNELS 3 Zrotation Xrotation Yrotation
								JOINT arm_left_link_4_u
								{
									OFFSET 0.000000 1.809932 0.000000
									CHANNELS 3 Zrotation Xrotation Yrotation
									JOINT tail_l4u
									{
										OFFSET 0.000297 0.000000 2.035159
										CHANNELS 3 Zrotation Xrotation Yrotation
										JOINT arm_left_link_5_r
										{
											OFFSET 0.000000 4.485610 -2.035159
											CHANNELS 3 Zrotation Xrotation Yrotation
											JOINT arm_left_link_6_b
											{
												OFFSET -0.000297 -0.999547 0.000000
												CHANNELS 3 Zrotation Xrotation Yrotation
												JOINT tail_l6b
												{
													OFFSET 0.000296 0.000000 1.944000
													CHANNELS 3 Zrotation Xrotation Yrotation
													JOINT arm_left_link_7_t
													{
														OFFSET -0.000296 2.679547 -1.944000
														CHANNELS 3 Zrotation Xrotation Yrotation
														JOINT arm_left_tool
														{
															OFFSET 0.000300 -0.500000 0.000000
															CHANNELS 6 Xposition Yposition Zposition Zrotation Xrotation Yrotation
															JOINT hand_left_1
															{
																OFFSET 0.000000 -0.500000 0.000000
																CHANNELS 6 Xposition Yposition Zposition Zrotation Xrotation Yrotation
																End Site
																{
																	OFFSET 0.999704 0.000000 0.000100
																}
															}
															JOINT hand_left_2
															{
																OFFSET 0.000000 -0.500000 0.000000
																CHANNELS 6 Xposition Yposition Zposition Zrotation Xrotation Yrotation
																End Site
																{
																	OFFSET -1.000295 0.000000 0.000080
																}
															}
														}
													}
												}
											}
										}
									}
								}
							}
						}
					}
				}
			}
			JOINT tail_right_link_1_s
			{
				OFFSET 0.000000 0.000000 3.221000
				CHANNELS 3 Zrotation Xrotation Yrotation
				JOINT arm_right_link_1_s
				{
					OFFSET 1.000000 -3.829999 0.000000
					CHANNELS 3 Zrotation Xrotation Yrotation
					JOINT arm_right_link_2_l
					{
						OFFSET 0.000000 1.299544 0.004000
						CHANNELS 3 Zrotation Xrotation Yrotation
						JOINT tail_r2l
						{
							OFFSET 0.000000 0.000000 2.000001
							CHANNELS 3 Zrotation Xrotation Yrotation
							JOINT arm_right_link_3_e
							{
								OFFSET 0.000000 -4.499545 -2.004001
								CHANNELS 3 Zrotation Xrotation Yrotation
								JOINT arm_right_link_4_u
								{
									OFFSET 0.000000 0.999618 0.000000
									CHANNELS 3 Zrotation Xrotation Yrotation
									JOINT tailr4u
									{
										OFFSET 0.000000 0.000000 -1.829300
										CHANNELS 3 Zrotation Xrotation Yrotation
										JOINT arm_right_link_5_r
										{
											OFFSET 0.000000 -1.935997 1.829300
											CHANNELS 3 Zrotation Xrotation Yrotation
											JOINT arm_right_link_6_b
											{
												OFFSET 0.000000 -1.550063 0.000000
												CHANNELS 3 Zrotation Xrotation Yrotation
												JOINT tail_r6b
												{
													OFFSET 0.000000 0.000000 -2.056000
													CHANNELS 3 Zrotation Xrotation Yrotation
													JOINT arm_right_link_7_t
													{
														OFFSET 0.000000 -0.679957 2.056000
														CHANNELS 3 Xrotation Yrotation Zrotation
														JOINT arm_right_tool
														{
															OFFSET 0.000000 -1.499600 0.000000
															CHANNELS 6 Xposition Yposition Zposition Zrotation Xrotation Yrotation
															JOINT hand_right_1
															{
																OFFSET 0.000000 0.500000 0.000000
																CHANNELS 6 Xposition Yposition Zposition Zrotation Xrotation Yrotation
																End Site
																{
																	OFFSET 1.000311 0.000035 0.000072
																}
															}
															JOINT hand_right_2
															{
																OFFSET 0.000000 0.500000 0.000000
																CHANNELS 6 Xposition Yposition Zposition Zrotation Xrotation Yrotation
																End Site
																{
																	OFFSET -0.999690 0.000000 0.000072
																}
															}
														}
													}
												}
											}
										}
									}
								}
							}
						}
					}
				}
			}
		}
	}
	JOINT lefttarget
	{
		OFFSET 1.925296 11.696000 12.056000
		CHANNELS 6 Xposition Yposition Zposition Zrotation Xrotation Yrotation
		End Site
		{
			OFFSET 0.000000 1.000000 0.000000
		}
	}
	JOINT right_target
	{
		OFFSET 1.925000 -11.696000 12.056000
		CHANNELS 6 Xposition Yposition Zposition Zrotation Xrotation Yrotation
		End Site
		{
			OFFSET 0.000000 -1.000000 0.000000
		}
	}
}
MOTION
Frames: 8
Frame Time: 0.041667
0.000000 0.000000 0.000000 -0.000000 0.000000 -0.000000 0.925000 -0.000000 8.835000 16.764838 0.000002 0.000003 -0.000002 -0.000000 -0.000000 0.041889 -0.507475 85.047822 -86.145508 0.129513 0.110932 0.000000 -0.000005 -0.000001 0.028235 0.009534 -83.803593 -85.558249 0.000255 -0.008281 -0.000000 -0.000000 -0.000000 0.896555 -0.048188 55.129025 -45.428172 2.345894 177.437701 0.000001 0.000002 -0.000000 0.284630 -2.520866 120.424609 0.000300 -0.500000 0.000001 -0.000002 0.000002 0.000001 -0.000000 -0.500000 -0.000003 -0.000001 0.000001 -0.000001 0.000001 -0.499999 -0.000001 -0.000006 0.000006 0.000004 -0.000000 -0.000000 0.000000 0.405559 -0.291777 67.436616 30.532858 0.149038 -0.090226 -0.000001 -0.000002 0.000001 0.020082 -0.426566 -77.009365 108.476265 -0.000849 0.001077 -0.000000 -0.000005 -0.000001 -0.258610 0.137507 62.563208 67.825185 -0.098458 -179.720678 -0.000001 0.000003 -0.000002 -0.037842 -205.142368 0.191407 0.000000 -1.499601 -0.000000 -0.000001 0.000001 -0.000001 0.000001 0.500000 0.000001 0.000000 -0.000001 0.000000 0.000001 0.500001 0.000002 0.000000 -0.000001 0.000003 6.668276 2.677624 9.411394 61.590111 154.309533 86.468795 6.532158 -0.727797 10.566922 184.739528 24.879456 182.929733 
0.000000 0.000000 0.000000 -0.000000 0.000000 -0.000000 0.925000 -0.000000 8.835000 16.307599 0.000002 0.000004 0.000002 0.000000 0.000000 0.038118 -0.404428 85.259373 -86.025365 0.152062 0.098619 -0.000002 0.000002 -0.000003 0.034206 0.044355 -83.913976 -85.559464 0.000366 -0.008261 0.000000 0.000002 -0.000000 0.954284 -0.069938 53.524340 -45.061685 2.294317 177.385012 0.000003 -0.000002 -0.000004 0.607334 -2.113306 121.665340 0.000299 -0.500000 0.000001 -0.000001 0.000001 -0.000000 0.000001 -0.499998 -0.000001 -0.000001 -0.000002 -0.000000 -0.000001 -0.499998 0.000001 0.000007 -0.000004 -0.000008 0.000001 0.000000 -0.000000 0.369916 -0.241726 66.394172 30.180120 0.149009 -0.088884 0.000002 -0.000003 -0.000001 0.018149 -0.297895 -75.869693 108.686464 -0.000926 0.000811 -0.000001 -0.000000 0.000000 -0.256332 0.139012 61.079192 67.499761 -0.097508 -179.687305 -0.000002 0.000003 -0.000002 -0.028631 -206.391159 0.190706 0.000001 -1.499599 -0.000000 -0.000001 0.000001 -0.000001 0.000002 0.500000 0.000002 -0.000001 -0.000001 0.000001 -0.000003 0.500002 0.000003 -0.000003 -0.000003 0.000002 6.683555 2.672911 9.411724 61.507698 154.225508 86.487045 6.490201 -0.741931 10.609722 184.736932 23.933195 181.327807 
0.000000 0.000000 0.000000 -0.000000 0.000000 -0.000000 0.925000 -0.000000 8.835000 15.537810 0.000002 0.000004 0.000000 0.000000 0.000000 0.033418 -0.277881 85.607487 -85.801943 0.140560 0.094917 0.000000 -0.000003 -0.000001 0.042757 0.014188 -84.160901 -85.561049 0.000219 -0.008279 -0.000000 -0.000002 -0.000000 1.044479 -0.090093 50.626322 -44.992167 2.240119 177.331040 -0.000001 0.000005 0.000002 0.618504 -0.885275 123.979572 0.000301 -0.500001 -0.000001 -0.000002 0.000002 0.000000 -0.000000 -0.499997 -0.000001 -0.000001 0.000001 -0.000001 0.000001 -0.500000 0.000000 0.000006 0.000001 0.000003 0.000003 -0.000000 0.000000 0.352828 -0.173667 64.735010 29.715500 0.149433 -0.087311 0.000001 -0.000002 -0.000002 0.005408 -0.242910 -73.930794 108.867731 -0.000743 0.000542 -0.000000 0.000002 -0.000002 -0.255537 0.150857 59.838987 66.609214 -0.113200 -179.727071 0.000002 0.000003 -0.000002 -0.029386 -207.534533 0.194621 -0.000000 -1.499600 -0.000001 -0.000000 -0.000001 0.000000 -0.000003 0.499999 0.000000 0.000000 -0.000000 0.000000 0.000002 0.500000 -0.000003 -0.000001 -0.000005 -0.000011 6.695253 2.673697 9.412924 61.466286 154.165211 86.536086 6.448999 -0.751546 10.655333 184.813963 23.021629 179.799949 
0.000000 0.000000 0.000000 -0.000000 0.000000 -0.000000 0.925000 0.000000 8.835000 14.966531 0.000003 0.000003 0.000000 0.000000 -0.000000 0.031264 -0.224999 85.964904 -85.616298 0.150238 0.100211 -0.000000 -0.000001 -0.000001 0.047675 0.021275 -84.431233 -85.561944 0.000306 -0.008270 0.000000 0.000003 0.000001 1.096593 -0.102625 48.570503 -44.981891 2.213772 177.306616 -0.000008 0.000002 -0.000002 0.631665 -0.051193 125.695247 0.000300 -0.500001 -0.000000 -0.000001 -0.000002 -0.000000 -0.000000 -0.500000 -0.000002 0.000002 0.000000 -0.000001 -0.000000 -0.500000 -0.000001 0.000002 0.000003 0.000004 -0.000000 -0.000000 0.000000 0.355526 -0.135250 63.549460 29.484564 0.149947 -0.086607 0.000000 -0.000003 0.000001 0.000801 -0.160143 -72.627491 109.025535 -0.000730 0.000432 0.000002 -0.000000 -0.000002 -0.251529 0.154068 58.305302 66.217400 -0.113638 -179.685461 -0.000001 -0.000002 -0.000003 -0.024195 -208.601832 0.193152 0.000000 -1.499599 -0.000001 0.000000 -0.000002 0.000001 -0.000003 0.500000 -0.000001 0.000000 -0.000000 -0.000001 0.000004 0.499999 -0.000001 -0.000002 -0.000002 -0.000001 6.704402 2.676644 9.414743 61.416972 154.141483 86.632712 6.410137 -0.760954 10.702641 184.883836 22.140734 178.418406 
0.000000 0.000000 0.000000 -0.000000 0.000000 -0.000000 0.925000 -0.000000 8.835000 14.022634 0.000002 0.000004 0.000001 0.000000 0.000000 0.030047 -0.194948 86.616655 -85.278689 0.168290 0.113669 0.000001 -0.000003 0.000001 0.050564 0.067304 -85.082437 -85.563112 0.000172 -0.008283 -0.000000 0.000003 0.000001 1.073323 -0.105412 46.134697 -45.368329 2.236017 177.330931 0.000004 0.000003 -0.000001 0.451529 0.961643 127.735234 0.000300 -0.499998 0.000000 -0.000000 0.000002 0.000000 -0.000000 -0.499999 -0.000004 -0.000001 0.000000 -0.000001 0.000002 -0.500000 -0.000001 0.000003 -0.000005 -0.000003 -0.000001 -0.000000 0.000000 0.391094 -0.123144 61.591818 29.324355 0.151224 -0.086209 0.000004 -0.000000 -0.000002 -0.000503 -0.238213 -70.394204 109.100504 -0.000457 0.000240 0.000001 -0.000005 -0.000002 -0.249555 0.163744 57.142875 65.195972 -0.121881 -179.724776 -0.000002 -0.000002 0.000000 -0.030003 -209.540409 0.196001 0.000000 -1.499600 -0.000001 -0.000000 0.000002 -0.000001 -0.000002 0.500001 0.000002 0.000000 0.000002 -0.000000 -0.000000 0.500004 0.000003 -0.000000 0.000002 0.000008 6.715757 2.676588 9.417010 61.294241 154.090639 86.751565 6.375858 -0.774187 10.754561 184.809401 21.357749 177.305386 
0.000000 0.000000 0.000000 -0.000000 0.000000 -0.000000 0.925000 -0.000000 8.835000 13.364251 0.000002 0.000004 0.000000 -0.000000 -0.000000 0.030985 -0.208674 87.005361 -85.011301 0.207128 0.116219 0.000001 -0.000001 -0.000000 0.038939 0.165752 -85.586901 -85.563767 0.000289 -0.008291 -0.000000 -0.000000 -0.000001 0.960309 -0.091588 45.618997 -45.387177 2.279262 177.374904 0.000000 -0.000007 -0.000004 0.490370 1.263015 128.015954 0.000300 -0.500002 0.000000 0.000001 0.000001 -0.000000 0.000001 -0.499999 -0.000002 -0.000001 -0.000000 -0.000001 -0.000001 -0.499997 -0.000001 -0.000003 0.000000 -0.000001 -0.000000 -0.000000 0.000000 0.396792 -0.125623 60.106580 29.360504 0.152295 -0.086378 -0.000002 -0.000002 -0.000002 0.002698 -0.192009 -69.051758 109.157624 -0.000387 0.000112 0.000003 -0.000000 -0.000000 -0.246853 0.161249 55.972089 64.854265 -0.111569 -179.685693 -0.000001 0.000002 0.000004 -0.027413 -210.492879 0.195742 -0.000000 -1.499600 -0.000000 0.000001 0.000002 -0.000000 -0.000000 0.500000 -0.000000 0.000000 0.000002 -0.000000 -0.000001 0.500001 -0.000001 -0.000000 -0.000000 -0.000004 6.725397 2.678803 9.415779 61.187355 154.040983 86.869624 6.347555 -0.787767 10.808014 184.715281 20.755067 176.470054 
0.000000 0.000000 0.000000 -0.000000 0.000000 -0.000000 0.925000 -0.000000 8.835000 12.354018 0.000003 0.000004 0.000001 -0.000000 -0.000000 0.032148 -0.227096 87.439795 -84.626392 0.208770 0.104662 -0.000000 -0.000001 0.000001 0.028064 0.233212 -86.700058 -85.564621 0.000229 -0.008283 0.000000 0.000002 0.000000 0.676694 -0.062029 46.463359 -45.642292 2.362826 177.455309 0.000001 -0.000000 -0.000001 0.527495 0.639660 127.176469 0.000301 -0.500001 0.000001 -0.000002 -0.000001 -0.000000 -0.000000 -0.499999 -0.000002 0.000000 -0.000000 0.000000 0.000000 -0.500000 -0.000001 0.000008 -0.000007 0.000001 -0.000000 -0.000000 0.000000 0.379643 -0.129384 57.679827 29.528055 0.153790 -0.087027 0.000004 -0.000000 0.000003 0.006808 -0.248801 -66.693129 109.090907 -0.000098 -0.000001 0.000001 0.000002 0.000000 -0.246883 0.170962 55.516365 64.131959 -0.126647 -179.741482 0.000001 0.000002 0.000001 -0.032094 -211.337651 0.199057 -0.000001 -1.499600 0.000001 -0.000000 0.000001 0.000000 -0.000001 0.499999 -0.000001 0.000000 -0.000000 0.000000 0.000002 0.500002 0.000000 -0.000001 -0.000000 -0.000002 6.730433 2.686516 9.411567 61.135268 154.025806 87.002410 6.324364 -0.798422 10.861757 184.675242 20.266940 175.842810 
0.000000 0.000000 0.000000 -0.000000 0.000000 -0.000000 0.925000 -0.000000 8.835000 11.686415 0.000002 0.000004 -0.000001 0.000000 -0.000000 0.032117 -0.224344 87.770595 -84.401488 0.209035 0.087388 -0.000000 -0.000003 0.000000 0.024074 0.298072 -87.607749 -85.565113 0.000236 -0.008284 -0.000000 0.000002 0.000000 0.459480 -0.049497 47.206767 -45.738410 2.410582 177.500347 -0.000001 0.000002 -0.000000 0.692743 0.210035 126.472946 0.000301 -0.500000 -0.000000 -0.000001 0.000003 0.000001 -0.000003 -0.500000 -0.000003 -0.000003 0.000000 -0.000001 0.000003 -0.500000 0.000000 0.000004 -0.000004 0.000002 -0.000001 -0.000000 0.000000 0.347833 -0.140447 55.880663 29.783252 0.155149 -0.088077 0.000003 0.000002 -0.000001 0.020250 -0.248622 -65.153229 108.954078 0.000143 0.000118 0.000002 -0.000002 -0.000002 -0.244496 0.168648 54.633201 63.883313 -0.117637 -179.709585 0.000001 0.000002 -0.000003 -0.033949 -211.920730 0.198914 -0.000000 -1.499601 0.000000 -0.000000 -0.000000 0.000000 -0.000000 0.500001 -0.000000 -0.000000 -0.000003 -0.000000 -0.000002 0.500002 0.000002 -0.000001 0.000000 0.000007 6.734200 2.694972 9.410058 61.062212 154.031435 87.191504 6.306743 -0.807981 10.919003 184.560153 19.708314 175.398739 
